<svg width="386px" height="386px" viewBox="0 0 386 386" xmlns="http://www.w3.org/2000/svg" xmlns:xlink="http://www.w3.org/1999/xlink"><path d="M192.5,0 C299.367099,0 386,86.4090433 386,193 C386,299.590957 299.367099,386 192.5,386 C122.907423,386 61.8955665,349.356496 27.8009256,294.3586 C59.0577918,331.345356 106.889372,355 160.5,355 C254.66455,355 331,282.022414 331,192 C331,101.977586 254.66455,29 160.5,29 C109.666315,29 64.0284928,50.2675673 32.7909347,84.0031874 C67.6556455,33.2765432 126.181679,0 192.5,0 Z" id="Combined-Shape"></path><path d="M281.047095,141 L281.047095,156.048968 L229.413389,156.048968 C225.726795,156.048968 223.226288,156.779412 221.877519,158.22413 C220.327179,159.949355 219.557842,162.057729 219.557842,164.552064 L219.557842,173.13179 C219.557842,175.581132 220.463287,177.712003 222.25603,179.532136 C224.055902,181.392342 226.218081,182.317524 228.72118,182.317524 L265.555363,182.317524 C271.11442,182.317524 275.59174,184.297948 278.979543,188.235595 C282.325218,192.142309 284,197.748939 284,205.049158 L284,222.404051 C284,229.303545 282.281793,234.680989 278.851861,238.534976 C275.009714,242.842414 269.949721,245 263.667345,245 L204.81341,245 L204.81341,229.960171 L260.028064,229.960171 C262.70616,229.960171 264.861858,229.111619 266.496456,227.439121 C267.783004,226.083687 268.437621,223.194954 268.437621,218.788389 L268.437621,204.916286 C268.437621,202.74253 267.479029,200.810616 265.555363,199.128978 C264.252611,197.947895 262.266724,197.361572 259.589925,197.361572 L220.119775,197.361572 C214.983302,197.361572 210.855976,195.651813 207.757889,192.251981 C205.252198,189.536192 204,185.379904 204,179.800692 L204,162.241922 C204,156.209258 204.751837,152.056485 206.263937,149.7829 C210.106732,143.925993 215.273667,141 221.755669,141 L281.047095,141 Z" id="Fill-10"></path><path d="M29,197 L66,197 L56.2964582,163.358385 C55.716307,161.397243 54.635178,159.456626 53.0517063,157.533702 C51.6443276,155.839377 49.862922,155 47.6999816,155 C45.3199963,155 43.3010699,156.078593 41.613171,158.218084 C40.3443461,159.770154 39.4399926,161.477218 38.906936,163.358385 L29,197 Z M0,244.939353 L22.9167645,164.887983 C24.8393684,158.232836 27.3623645,152.954448 30.4924986,149.035391 C34.7134575,143.683111 40.4219048,141 47.5989516,141 C54.7456415,141 60.2544077,143.091279 64.1265995,147.280808 C67.1764565,150.608033 69.4889781,154.883304 71.0479737,160.099651 L96,245 L79.7347706,245 L70.1426634,213.281572 L26.0624144,213.281572 L15.7970585,245 L0,244.939353 Z" id="Fill-6"></path><path d="M100,245 L100,160.753033 C100,154.794177 101.774974,149.996534 105.306678,146.367744 C107.995855,143.589723 111.521694,142.191683 115.901136,142.191683 C119.769068,142.191683 123.006897,143.229274 125.611366,145.294039 C127.587686,146.910847 129.004929,148.651972 129.835074,150.531998 C131.065306,153.227373 132.151533,156.945754 133.122426,161.698949 L144.163234,215.487691 C144.667577,217.951101 145.612405,219.183848 146.999674,219.183848 C148.34915,219.183848 149.215134,218.237238 149.653013,216.354434 L161.315453,159.679327 C162.574356,153.493368 164.974872,148.856851 168.50853,145.768386 C171.370382,143.25636 174.565857,142 178.10538,142 C182.350592,142 185.9859,143.516105 189.019125,146.564983 C192.32407,150.022231 194,154.391364 194,159.679327 L194,245 L178.351687,245 L178.351687,163.578975 C178.351687,161.917023 177.912505,161.094035 177.027624,161.094035 C176.305645,161.094035 175.781754,161.917023 175.452041,163.578975 L163.523745,221.66601 C162.520273,226.601165 160.119757,230.754307 156.334579,234.117102 C153.512474,236.62496 150.425166,237.881321 147.064183,237.881321 C144.410844,237.881321 141.777705,237.111114 139.17845,235.595704 C136.026633,233.752486 133.515996,230.254263 131.662829,225.0927 C130.402623,221.604199 128.46996,213.177766 125.873311,199.818957 L118.989096,164.387379 C118.615074,162.597639 118.024719,161.698949 117.220638,161.698949 C116.167643,161.698949 115.6431,162.597639 115.6431,164.387379 L115.6431,245 L100,245 Z" id="Fill-8"></path></svg>
